<?xml version="1.0" encoding="UTF-8"?>
<svg id="Layer_1" data-name="Layer 1" xmlns="http://www.w3.org/2000/svg" viewBox="0 0 276 60">
  <defs>
    <style>
      .cls-1, .cls-2 {
        fill: #0e62f0;
      }

      .cls-2 {
        fill-rule: evenodd;
      }
    </style>
  </defs>
  <path class="cls-2" d="M74.9,35.3h-3.6v-8.5c0-4.4-1.6-9.2-4.5-11.4-3-2.2-7.1-3.3-12.6-3.3s-5.7,.3-8.3,.9c-2.4,.7-4.9,1.8-7.3,3.1l3.7,7.1c1.7-1.1,3.6-2,5.1-2.6,1.7-.5,3.6-.9,5.4-.9s3.6,.4,4.5,1.1c.9,.7,1.4,1.8,1.4,3.1v1.9c-.9-.4-2-.7-3.2-.8-1.1-.3-2.4-.4-3.9-.4-2.8,0-5.4,.8-7.5,1.6-2.3,.9-4,2.5-5.3,4.1s-2,3.6-2,5.7,.6,3.6,1.6,5.1c1.1,1.5,2.6,2.7,4.3,3.6,1.9,.9,4,1.4,6.3,1.4s4.3-.4,6.4-1.4c1.1-.7,2.3-1.4,3.3-2.4v3h16.1v-10.1Zm-19.7,2.4c-.9,.3-1.6,.4-2.4,.4s-1.4-.2-2-.4c-.5-.3-1.1-.5-1.4-1.1-.3-.4-.6-.8-.6-1.5s.6-1.8,1.6-2.5c1-.7,2.3-.9,3.7-.9s1.6,.2,2.4,.3c.9,.1,1.7,.3,2.4,.5v2.2c0,.4-.2,.8-.4,1.1-.4,.4-.7,.7-1.3,1.1,0,0-1.1,.7-1.9,.8Z"/>
  <path class="cls-2" d="M193.8,20.8c-1.4-2.6-3.5-4.8-6.2-6.3-2.8-1.7-6.2-2.5-10.2-2.5s-7.5,.9-10.1,2.5c-2.8,1.6-4.9,3.8-6.3,6.5-2.4,4.8-2.7,10.5-.8,15.5,2.8,8,9.6,10.5,17.1,10.5s4.2-.2,6.5-.7h10.4v-10.5h-10.4c-.2,1-.4,2-1,2.7-.6,.7-1.3,1.2-2.1,1.7s-1.8,.5-2.9,.5-2.1-.2-2.9-.5c-.8-.4-1.5-1-2.1-1.7-.6-.9-.8-1.7-1-2.8,0,0-.3-1.9,0-2.5h24c0-.5,.2-1.1,.2-1.7,.2-.7,.2-1.4,.2-1.9,0-3.1-.7-6-2.1-8.7h0Zm-22.2,4.8c.2-1.4,.7-2.6,1.8-3.6s2.3-1.4,3.7-1.4c1.3,0,2.6,.5,3.7,1.3s1.6,2.2,1.9,3.7c0,0-11,0-11,0Z"/>
  <polygon class="cls-1" points="0 0 0 9.9 3.8 9.9 3.8 35.6 .2 35.6 .2 46 19.8 46 19.8 35.6 16.1 35.6 16.1 9.9 24.8 9.9 24.8 14.8 35 14.8 35 0 0 0"/>
  <path class="cls-1" d="M112.5,16.9c-.3-.3-.6-.6-.9-.9-1.2-1.1-2.5-2-4-2.6-1.9-.8-4-1.3-6.2-1.3s-4.7,.5-6.5,1.4c-1.8,1-3.3,2.3-4.5,4.2v-5.1h-14.4v9.8h3.8v27.4h-3.8v10.3h19.8v-10.3h-3.8v-8.8c1,1.8,2.4,3.2,4.2,4.1,1.8,.9,3.9,1.4,6.4,1.4s5.3-.7,7.5-2.2c2.2-1.5,3.9-3.6,5.1-6.2,1.2-2.6,1.9-5.6,1.9-8.9s-.4-4.8-1.2-6.8c-.8-2-1.9-3.9-3.3-5.5Zm-8.5,14.9c-.3,.8-.7,1.6-1.3,2.3-.5,.6-1.2,1.2-2,1.5-.7,.4-1.5,.5-2.5,.5s-1.7-.2-2.5-.6c-.8-.4-1.5-1-2.2-1.7-.6-.7-1.2-1.6-1.5-2.5v-5.7c.4-.5,.8-1,1.2-1.4,.4-.4,.9-.7,1.4-1,.5-.3,1-.4,1.5-.6,.5-.2,1.1-.2,1.6-.2,1,0,1.9,.2,2.7,.5,.8,.3,1.5,.8,2.1,1.4,.6,.6,1.1,1.3,1.4,2.1,.3,.8,.5,1.7,.5,2.8s-.2,1.9-.4,2.8Z"/>
  <path class="cls-1" d="M150.1,27.9c1.8-.8,3.2-1.8,4.1-3.2,.9-1.3,1.2-3,1.2-4.9s-.4-2.7-1.1-3.9c-.7-1.2-1.9-2.2-3.5-2.8-1.5-.7-3.8-1.1-6.5-1.1h-24.4v9.7h3.8v13.6h-3.8v9.7h22.8c3,0,5.6-.3,7.7-.8,2.1-.5,3.7-1.5,4.8-2.8,1.1-1.3,1.7-3.2,1.7-5.5s-.6-4.1-1.9-5.3c-1.3-1.2-5-2.7-5-2.7Zm-8.7-8c.7,0,1.4,.2,1.8,.6,.4,.4,.7,1,.7,1.7s-.1,.9-.3,1.3c-.2,.4-.5,.7-.9,.9-.4,.2-.9,.3-1.3,.3h-5.9v-4.9h5.8Zm2.5,16.6c-.4,.2-.9,.3-1.4,.3h-6.9v-5h6.9c.5,0,1,.1,1.4,.3,.4,.2,.7,.5,1,.8,.2,.4,.4,.8,.4,1.3,0,.9-.5,1.9-1.3,2.3Z"/>
  <polygon class="cls-1" points="226.5 30.2 232.7 22.3 236.8 22.3 236.8 12.4 217.4 12.4 217.4 22.3 220.1 22.3 215 29.3 215 0 199 0 199 9.9 202.8 9.9 202.8 35.5 199 35.5 199 46 215 46 215 41.6 220.2 36.9 227.2 46 238 46 238 35.5 230.9 35.5 226.5 30.2"/>
  <path class="cls-1" d="M264,34.1c-.3,.5-.7,1-1.2,1.3-.5,.4-1,.7-1.5,.9-.5,.2-1.2,.3-1.8,.3-1.1,0-2.1-.3-3-.9-.9-.6-1.6-1.4-2.1-2.4-.5-1.1-.8-2.3-.8-3.8s.3-2.7,.8-3.9c.5-1,1.2-1.8,2.1-2.4,.9-.6,1.9-.9,3-.9s1.8,.2,2.7,.6c.8,.4,1.8,1.9,2,2.8h11.1V12.6h-11.1c-1.8-.5-3.4-.6-5.6-.6-4,0-6.3,.8-9.1,2.4-2.8,1.6-4.9,3.8-6.3,6.4-1.4,2.7-2.1,5.6-2.1,8.6s.4,4.6,1.2,6.6c.8,2.1,2,4,3.6,5.6,1.6,1.6,3.5,2.9,5.8,3.9,2.3,1,4.9,1.4,7.9,1.4s5.2-.4,7.3-1.2c2.1-.8,4-1.9,5.5-3.3,1.5-1.4,2.8-3.1,3.7-4.8l-11.9-3.7h-.1Z"/>
</svg>